<svg width="24" height="24" viewBox="0 0 24 24" fill="none" xmlns="http://www.w3.org/2000/svg">
<g clip-path="url(#clip0_2224_593)">
<path fill-rule="evenodd" clip-rule="evenodd" d="M12.9697 3.96967C12.6768 4.26256 12.6768 4.73744 12.9697 5.03033L19.1893 11.25H3C2.58579 11.25 2.25 11.5858 2.25 12C2.25 12.4142 2.58579 12.75 3 12.75H19.1893L12.9697 18.9697C12.6768 19.2626 12.6768 19.7374 12.9697 20.0303C13.2626 20.3232 13.7374 20.3232 14.0303 20.0303L21.5303 12.5303C21.8232 12.2374 21.8232 11.7626 21.5303 11.4697L14.0303 3.96967C13.7374 3.67678 13.2626 3.67678 12.9697 3.96967Z" fill="#131313"/>
</g>
<defs>
<clipPath id="clip0_2224_593">
<rect width="24" height="24" fill="white" transform="matrix(-1 0 0 1 24 0)"/>
</clipPath>
</defs>
</svg>
